<?xml version="1.0" standalone="no"?>
<!DOCTYPE svg PUBLIC "-//W3C//DTD SVG 20010904//EN"
 "http://www.w3.org/TR/2001/REC-SVG-20010904/DTD/svg10.dtd">
<svg version="1.0" xmlns="http://www.w3.org/2000/svg"
 width="700.000000pt" height="700.000000pt" viewBox="0 0 700.000000 700.000000"
 preserveAspectRatio="xMidYMid meet">
<metadata>
Created by potrace 1.11, written by Peter Selinger 2001-2013
</metadata>
<g transform="translate(0.000000,700.000000) scale(0.100000,-0.100000)"
fill="#000000" stroke="none">
<path d="M4202 6209 l3 -362 95 -33 c202 -68 357 -145 550 -271 63 -42 117
-78 120 -82 3 -3 39 -33 80 -66 97 -76 279 -258 359 -359 196 -247 348 -536
437 -831 14 -44 26 -89 29 -100 60 -279 70 -362 70 -600 0 -149 -11 -340 -20
-355 -2 -3 -6 -30 -10 -60 -9 -72 -69 -307 -101 -395 -165 -456 -446 -843
-824 -1137 -184 -142 -453 -287 -678 -365 l-112 -38 0 -363 c0 -341 1 -363 18
-358 9 3 42 12 72 20 108 29 136 38 225 68 783 263 1440 841 1810 1593 87 176
90 183 156 375 55 159 105 354 124 485 4 22 10 68 16 101 19 126 24 215 24
424 0 270 -10 372 -60 635 -68 357 -247 786 -458 1100 -48 72 -172 238 -207
279 -153 178 -306 326 -455 444 -44 35 -87 69 -96 76 -28 23 -244 164 -299
195 -252 143 -562 266 -843 335 l-27 6 2 -361z"/>
<path d="M2620 5420 l-865 -868 -702 -1 -703 -1 0 -1050 0 -1050 700 0 700 0
870 -870 c478 -478 872 -870 875 -870 3 0 5 1256 5 2790 0 1535 -3 2790 -7
2789 -5 0 -397 -391 -873 -869z"/>
<path d="M4200 3504 l0 -1406 81 44 c437 240 734 692 786 1198 52 518 -154
1028 -551 1364 -71 60 -200 147 -274 185 l-42 21 0 -1406z"/>
</g>
</svg>
